# xmcd CD database file
#
# Track frame offsets:
#	150
#	24314
#	48298
#	57777
#	80023
#	113645
#	138834
#	166843
#
# Disc length: 2608 seconds
#
# Revision: 0
# Processed by: cddbd v1.4PL0 Copyright (c) Steve Scherf et al.
# Submitted via: CDex 1.50beta8
#
DISCID=580a2e08
DTITLE=Airto Moreira - Best Picks #2
DYEAR=2002
DGENRE=Jazz
TTITLE0=The Magicians (Bruxos)
TTITLE1=Tales Fom Home (Lendas)
TTITLE2=Identity
TTITLE3=Encounter (encontro No Bar)
TTITLE4=Wake Up Song
TTITLE5=Mae Cambina (Baiao do accordar/Cafe)
TTITLE6=Flora On My Mind
TTITLE7=Tombo in 7/4
EXTD=YEAR: 2002
EXTT0=
EXTT1=
EXTT2=
EXTT3=
EXTT4=
EXTT5=
EXTT6=
EXTT7=
PLAYORDER=
